<?xml version="1.0" encoding="UTF-8" standalone="no"?>
<svg
   width="211.95312"
   zoomAndPan="magnify"
   viewBox="0 0 158.96484 57.570311"
   height="76.760414"
   preserveAspectRatio="xMidYMid"
   version="1.0"
   id="svg177"
   sodipodi:docname="bg_image.svg"
   inkscape:export-batch-path="/Users/abhyas/projects/diet_recall-kavya/src/images"
   inkscape:export-batch-name="bg_image"
   xmlns:inkscape="http://www.inkscape.org/namespaces/inkscape"
   xmlns:sodipodi="http://sodipodi.sourceforge.net/DTD/sodipodi-0.dtd"
   xmlns="http://www.w3.org/2000/svg"
   xmlns:svg="http://www.w3.org/2000/svg">
  <sodipodi:namedview
     id="namedview177"
     pagecolor="#ffffff"
     bordercolor="#000000"
     borderopacity="0.25"
     inkscape:showpageshadow="2"
     inkscape:pageopacity="0.0"
     inkscape:pagecheckerboard="0"
     inkscape:deskcolor="#d1d1d1">
    <inkscape:page
       x="0"
       y="0"
       width="158.96484"
       height="57.570312"
       id="page1"
       margin="0"
       bleed="0" />
  </sodipodi:namedview>
  <defs
     id="defs20">
    <clipPath
       id="6a3d966dbc">
      <path
         d="M 0,0.140625 H 1024 V 575.85937 H 0 Z m 0,0"
         clip-rule="nonzero"
         id="path2" />
    </clipPath>
    <clipPath
       id="15fe72ce4f">
      <path
         d="M 526.43359,0.140625 H 685.39844 V 57.710938 H 526.43359 Z m 0,0"
         clip-rule="nonzero"
         id="path4" />
    </clipPath>
    <clipPath
       id="3b5ad4e738">
      <path
         d="m 605.91797,-101.25391 c -43.89844,0 -79.48438,35.585941 -79.48438,79.484379 0,43.894531 35.58594,79.480469 79.48438,79.480469 43.89453,0 79.48047,-35.585938 79.48047,-79.480469 0,-43.898438 -35.58594,-79.484379 -79.48047,-79.484379 z m 0,0"
         clip-rule="nonzero"
         id="path5" />
    </clipPath>
  </defs>
  <g
     clip-path="url(#6a3d966dbc)"
     id="g22"
     transform="translate(-526.43359,-0.140625)">
    <path
       fill="#ffffff"
       d="M 0,0.140625 H 1024 V 575.85937 H 0 Z m 0,0"
       fill-opacity="1"
       fill-rule="nonzero"
       id="path21" />
    <path
       fill="#ffffff"
       d="M 0,0.140625 H 1024 V 575.85937 H 0 Z m 0,0"
       fill-opacity="1"
       fill-rule="nonzero"
       id="path22" />
  </g>
  <g
     clip-path="url(#15fe72ce4f)"
     id="g27"
     transform="translate(-526.43359,-0.140625)">
    <g
       clip-path="url(#3b5ad4e738)"
       id="g26">
      <path
         fill="#aabf7e"
         d="M 526.43359,-101.25391 H 685.39844 V 57.710938 H 526.43359 Z m 0,0"
         fill-opacity="1"
         fill-rule="nonzero"
         id="path25" />
    </g>
  </g>
</svg>
