<?xml version="1.0" encoding="UTF-8" standalone="no"?>
<svg
   width="58.932293"
   zoomAndPan="magnify"
   viewBox="0 0 44.19922 175.19531"
   height="233.59375"
   preserveAspectRatio="xMidYMid"
   version="1.0"
   id="svg177"
   sodipodi:docname="bg_image.svg"
   inkscape:export-batch-path="/Users/abhyas/projects/diet_recall-kavya/src/images"
   inkscape:export-batch-name="bg_image"
   xmlns:inkscape="http://www.inkscape.org/namespaces/inkscape"
   xmlns:sodipodi="http://sodipodi.sourceforge.net/DTD/sodipodi-0.dtd"
   xmlns="http://www.w3.org/2000/svg"
   xmlns:svg="http://www.w3.org/2000/svg">
  <sodipodi:namedview
     id="namedview177"
     pagecolor="#ffffff"
     bordercolor="#000000"
     borderopacity="0.25"
     inkscape:showpageshadow="2"
     inkscape:pageopacity="0.0"
     inkscape:pagecheckerboard="0"
     inkscape:deskcolor="#d1d1d1">
    <inkscape:page
       x="0"
       y="0"
       width="44.199219"
       height="175.19531"
       id="page1"
       margin="0"
       bleed="0" />
  </sodipodi:namedview>
  <defs
     id="defs20">
    <clipPath
       id="6a3d966dbc">
      <path
         d="M 0,0.140625 H 1024 V 575.85937 H 0 Z m 0,0"
         clip-rule="nonzero"
         id="path2" />
    </clipPath>
    <clipPath
       id="0bdbd8022c">
      <path
         d="M 0,86.339844 H 44.199219 V 261.53516 H 0 Z m 0,0"
         clip-rule="nonzero"
         id="path15" />
    </clipPath>
    <clipPath
       id="e91abbcc75">
      <path
         d="M -43.398438,86.339844 C -91.78125,86.339844 -131,125.55859 -131,173.9375 c 0,48.37891 39.21875,87.59766 87.601562,87.59766 48.378907,0 87.597657,-39.21875 87.597657,-87.59766 0,-48.37891 -39.21875,-87.597656 -87.597657,-87.597656 z m 0,0"
         clip-rule="nonzero"
         id="path16" />
    </clipPath>
  </defs>
  <g
     clip-path="url(#6a3d966dbc)"
     id="g22"
     transform="translate(0,-86.339844)">
    <path
       fill="#ffffff"
       d="M 0,0.140625 H 1024 V 575.85937 H 0 Z m 0,0"
       fill-opacity="1"
       fill-rule="nonzero"
       id="path21" />
    <path
       fill="#ffffff"
       d="M 0,0.140625 H 1024 V 575.85937 H 0 Z m 0,0"
       fill-opacity="1"
       fill-rule="nonzero"
       id="path22" />
  </g>
  <g
     clip-path="url(#0bdbd8022c)"
     id="g173"
     transform="translate(0,-86.339844)">
    <g
       clip-path="url(#e91abbcc75)"
       id="g172">
      <path
         fill="#aabf7e"
         d="M -131,86.339844 H 44.199219 V 261.53516 H -131 Z m 0,0"
         fill-opacity="1"
         fill-rule="nonzero"
         id="path171" />
    </g>
  </g>
</svg>
