<?xml version="1.0" encoding="UTF-8" standalone="no"?>
<svg
   width="304.11459"
   zoomAndPan="magnify"
   viewBox="0 0 228.08595 37.099628"
   height="49.466171"
   preserveAspectRatio="xMidYMid"
   version="1.0"
   id="svg177"
   sodipodi:docname="bg_image.svg"
   inkscape:export-batch-path="/Users/abhyas/projects/diet_recall-kavya/src/images"
   inkscape:export-batch-name="bg_image"
   xmlns:inkscape="http://www.inkscape.org/namespaces/inkscape"
   xmlns:sodipodi="http://sodipodi.sourceforge.net/DTD/sodipodi-0.dtd"
   xmlns="http://www.w3.org/2000/svg"
   xmlns:svg="http://www.w3.org/2000/svg">
  <sodipodi:namedview
     id="namedview177"
     pagecolor="#ffffff"
     bordercolor="#000000"
     borderopacity="0.25"
     inkscape:showpageshadow="2"
     inkscape:pageopacity="0.0"
     inkscape:pagecheckerboard="0"
     inkscape:deskcolor="#d1d1d1">
    <inkscape:page
       x="0"
       y="0"
       width="228.08595"
       height="37.099628"
       id="page1"
       margin="0"
       bleed="0" />
  </sodipodi:namedview>
  <defs
     id="defs20">
    <clipPath
       id="6a3d966dbc">
      <path
         d="M 0,0.140625 H 1024 V 575.85937 H 0 Z m 0,0"
         clip-rule="nonzero"
         id="path2" />
    </clipPath>
    <clipPath
       id="35dd0e4d2c">
      <path
         d="m 0,538 h 229 v 37.85937 H 0 Z m 0,0"
         clip-rule="nonzero"
         id="path18" />
    </clipPath>
    <clipPath
       id="5e48d6fa9e">
      <path
         d="m -34.285156,508.97266 275.894526,70.91796 -26.875,104.54688 -275.89062,-70.91797 z m 0,0"
         clip-rule="nonzero"
         id="path19" />
    </clipPath>
    <clipPath
       id="3199691db0">
      <path
         d="m -34.285156,508.97266 275.894526,70.91796 -26.875,104.54688 -275.89062,-70.91797 z m 0,0"
         clip-rule="nonzero"
         id="path20" />
    </clipPath>
  </defs>
  <g
     clip-path="url(#6a3d966dbc)"
     id="g22"
     transform="translate(0,-538.75975)">
    <path
       fill="#ffffff"
       d="M 0,0.140625 H 1024 V 575.85937 H 0 Z m 0,0"
       fill-opacity="1"
       fill-rule="nonzero"
       id="path21" />
    <path
       fill="#ffffff"
       d="M 0,0.140625 H 1024 V 575.85937 H 0 Z m 0,0"
       fill-opacity="1"
       fill-rule="nonzero"
       id="path22" />
  </g>
  <g
     clip-path="url(#35dd0e4d2c)"
     id="g177"
     transform="translate(0,-538.75975)">
    <g
       clip-path="url(#5e48d6fa9e)"
       id="g176">
      <g
         clip-path="url(#3199691db0)"
         id="g175">
        <path
           fill="#aabf7e"
           d="m 227.01953,632.25391 c -12.52734,5.60156 -24.98437,11.40625 -37.26953,17.49609 -8.58984,3.85937 -13.30078,7.17969 -21.40234,9.14062 -9.42579,2.35547 -15.29688,2.31641 -21.14063,-4.02343 -0.17187,-0.28907 -0.34375,-0.57813 -0.51172,-0.86719 -0.95703,-1.28906 -2.01953,-5.72656 -3.0625,-9.54688 -1.28906,-5.23437 -1.30469,-7.07421 -1.95312,-10.98046 -0.85938,-5.24219 -1.51953,-11.96875 -2.42188,-19.42579 -1.40625,-8.8164 -2.73047,-17.73437 -5.4375,-26.26953 -3.20703,-8.97265 -7.32031,-17.75 -13.23047,-25.27343 -6.53515,-8.17188 -14.86328,-15.33594 -24.636715,-19.25782 -5.382813,-2.17968 -11.117187,-3.22656 -16.839844,-3.83984 -9.03125,-1.09375 -18.242187,-0.76563 -27.203125,0.72656 -15.023437,2.20313 -29.488281,6.75781 -43.484375,12.59375 -6.421875,2.57422 -12.828125,5.33985 -18.867187,8.8086 -9.882813,6.03906 -19.125,13.15625 -27.59375,21.08593 -6.632813,6.26172 -12.679688,13.09766 -17.753906,20.67578 -1.65625,2.64063 -3.847657,5.19922 -4.113282,8.37891 -0.0625,0.71875 0.410156,1.26953 0.609375,1.93359 -0.125,-0.70703 -0.394531,-1.32812 -0.261719,-2.08984 0.28125,-1.09375 0.777344,-2.06641 1.429688,-2.94141 1.234375,-1.70312 2.683594,-3.29296 4.078125,-4.89453 6.636719,-7.48047 14.109375,-14.13672 21.890625,-20.34765 6.367188,-4.97657 15.519531,-11.9961 24,-17.10938 8.03125,-4.55078 13.5,-6.51562 22.140625,-9.86719 10.347656,-4.01953 21.003906,-7.34375 31.921875,-9.3164 8.300781,-1.53906 16.382812,-2.71094 26.335938,-2.11328 7.234374,0.20703 17.167968,2.08593 22.632812,4.65625 7.89063,3.375 16.38672,11.5625 20.08203,16.25 3.64063,4.67187 6.48438,9.8125 8.96485,15.16797 0.19921,0.41796 0.71093,1.53125 0.9375,2.07812 3.10546,6.98438 4.79687,14.46484 6.05468,21.95703 1,5.89063 1.40625,7.40625 1.96094,12.63281 0.96094,9.375 1.97656,18.76563 3.88672,28.01563 1.89453,7.41016 3.01562,13.76172 10.05469,18.08203 7.67968,5.16016 16.11718,4.02344 24.52343,1.58984 6.66016,-1.84375 12.6836,-5.25781 18.53516,-8.71484 6.03906,-3.47266 11.9375,-7.34766 17.80469,-11.10547 6.60156,-4.24609 13.10937,-8.57812 19.58203,-13.03906 0.28906,-0.16797 0.59375,-0.39844 0.82422,-0.58203 -0.44532,0.0664 -0.71875,0.17969 -1.06641,0.33594"
           fill-opacity="1"
           fill-rule="nonzero"
           id="path174" />
      </g>
    </g>
  </g>
</svg>
